<svg width="5" height="16" viewBox="0 0 5 16" fill="none" xmlns="http://www.w3.org/2000/svg">
<g opacity="0.371698">
<path fill-rule="evenodd" clip-rule="evenodd" d="M2.18182 0C0.976833 0 0 0.976833 0 2.18182C0 3.3868 0.976833 4.36364 2.18182 4.36364C3.3868 4.36364 4.36364 3.3868 4.36364 2.18182C4.36364 0.976833 3.3868 0 2.18182 0ZM2.18182 5.81818C0.976833 5.81818 0 6.79502 0 8C0 9.20498 0.976833 10.1818 2.18182 10.1818C3.3868 10.1818 4.36364 9.20498 4.36364 8C4.36364 6.79502 3.3868 5.81818 2.18182 5.81818ZM0 13.8182C0 12.6132 0.976833 11.6364 2.18182 11.6364C3.3868 11.6364 4.36364 12.6132 4.36364 13.8182C4.36364 15.0232 3.3868 16 2.18182 16C0.976833 16 0 15.0232 0 13.8182Z" fill="black"/>
</g>
</svg>
