<svg width="695" height="1773" viewBox="0 0 695 1773" fill="none" xmlns="http://www.w3.org/2000/svg">
<path d="M683 978L683.5 977.991L683.494 977.631L683.15 977.523L683 978ZM694 1599L694.122 1599.48L694.507 1599.39L694.5 1598.99L694 1599ZM323 1773L326.291 1768.26L320.537 1767.78L323 1773ZM323.866 1768.6C323.92 1768.27 323.979 1767.94 324.045 1767.62L323.064 1767.42C322.996 1767.76 322.935 1768.1 322.879 1768.43L323.866 1768.6ZM327.894 1757.4C329.527 1754.41 331.596 1751.41 334.067 1748.4L333.294 1747.77C330.791 1750.82 328.685 1753.87 327.017 1756.92L327.894 1757.4ZM341.585 1740.37C344.127 1737.94 346.907 1735.51 349.907 1733.09L349.279 1732.31C346.26 1734.75 343.458 1737.2 340.895 1739.64L341.585 1740.37ZM358.756 1726.39C361.669 1724.31 364.73 1722.24 367.928 1720.18L367.386 1719.34C364.176 1721.41 361.102 1723.49 358.176 1725.57L358.756 1726.39ZM377.276 1714.39C380.375 1712.54 383.574 1710.7 386.866 1708.87L386.38 1708C383.08 1709.83 379.872 1711.68 376.765 1713.53L377.276 1714.39ZM396.66 1703.59C399.874 1701.9 403.16 1700.23 406.511 1698.56L406.066 1697.67C402.709 1699.34 399.417 1701.02 396.196 1702.7L396.66 1703.59ZM416.449 1693.73C419.76 1692.16 423.123 1690.6 426.534 1689.04L426.119 1688.13C422.704 1689.69 419.336 1691.26 416.02 1692.83L416.449 1693.73ZM436.628 1684.53C439.982 1683.06 443.374 1681.6 446.798 1680.15L446.408 1679.23C442.98 1680.68 439.585 1682.14 436.226 1683.62L436.628 1684.53ZM457.06 1675.87C460.451 1674.48 463.867 1673.1 467.302 1671.73L466.932 1670.8C463.494 1672.17 460.075 1673.55 456.681 1674.95L457.06 1675.87ZM477.629 1667.67C481.065 1666.34 484.516 1665.02 487.977 1663.72L487.624 1662.78C484.16 1664.09 480.706 1665.41 477.267 1666.74L477.629 1667.67ZM498.364 1659.85C501.83 1658.57 505.301 1657.31 508.772 1656.06L508.433 1655.12C504.96 1656.37 501.487 1657.63 498.018 1658.91L498.364 1659.85ZM519.225 1652.34C522.72 1651.11 526.21 1649.9 529.69 1648.7L529.364 1647.75C525.882 1648.95 522.39 1650.17 518.893 1651.4L519.225 1652.34ZM540.174 1645.12C543.703 1643.93 547.215 1642.76 550.707 1641.6L550.393 1640.65C546.899 1641.81 543.385 1642.98 539.854 1644.17L540.174 1645.12ZM561.2 1638.16C564.759 1637.01 568.29 1635.87 571.787 1634.75L571.483 1633.8C567.984 1634.92 564.452 1636.05 560.891 1637.21L561.2 1638.16ZM582.366 1631.41C585.915 1630.3 589.42 1629.21 592.876 1628.15L592.582 1627.19C589.124 1628.26 585.617 1629.34 582.067 1630.46L582.366 1631.41ZM603.552 1624.89C607.166 1623.8 610.715 1622.73 614.19 1621.7L613.905 1620.74C610.428 1621.78 606.878 1622.84 603.262 1623.93L603.552 1624.89ZM624.772 1618.58C628.41 1617.52 631.948 1616.49 635.376 1615.51L635.099 1614.54C631.671 1615.53 628.131 1616.56 624.492 1617.62L624.772 1618.58ZM646.098 1612.45C649.842 1611.39 653.416 1610.39 656.802 1609.45L656.534 1608.49C653.147 1609.43 649.572 1610.43 645.826 1611.49L646.098 1612.45ZM667.484 1606.52C671.391 1605.46 674.93 1604.51 678.059 1603.67L677.801 1602.71C674.671 1603.54 671.13 1604.49 667.221 1605.55L667.484 1606.52ZM688.927 1600.81C690.617 1600.38 691.916 1600.04 692.792 1599.82C693.23 1599.71 693.563 1599.63 693.786 1599.57C693.897 1599.54 693.981 1599.52 694.037 1599.51C694.065 1599.5 694.086 1599.49 694.101 1599.49C694.108 1599.49 694.113 1599.49 694.116 1599.49C694.118 1599.49 694.119 1599.49 694.12 1599.49C694.121 1599.49 694.121 1599.49 694.121 1599.49C694.121 1599.48 694.121 1599.48 694.122 1599.48C694.122 1599.48 694.122 1599.48 694.122 1599.48C694.122 1599.48 694.122 1599.48 694 1599C693.878 1598.52 693.878 1598.52 693.878 1598.52C693.878 1598.52 693.878 1598.52 693.878 1598.52C693.878 1598.52 693.878 1598.52 693.878 1598.52C693.878 1598.52 693.878 1598.52 693.877 1598.52C693.876 1598.52 693.875 1598.52 693.873 1598.52C693.869 1598.52 693.864 1598.52 693.857 1598.52C693.843 1598.52 693.822 1598.53 693.793 1598.54C693.737 1598.55 693.652 1598.57 693.541 1598.6C693.317 1598.66 692.984 1598.74 692.545 1598.85C691.668 1599.08 690.367 1599.41 688.676 1599.85L688.927 1600.81ZM694.5 1598.99L694.402 1593.45L693.402 1593.46L693.5 1599.01L694.5 1598.99ZM694.205 1582.36L694.009 1571.27L693.009 1571.29L693.205 1582.37L694.205 1582.36ZM693.812 1560.18L693.616 1549.09L692.616 1549.11L692.813 1560.2L693.812 1560.18ZM693.42 1538L693.223 1526.91L692.223 1526.93L692.42 1538.02L693.42 1538ZM693.027 1515.82L692.83 1504.73L691.83 1504.75L692.027 1515.84L693.027 1515.82ZM692.634 1493.64L692.437 1482.55L691.438 1482.57L691.634 1493.66L692.634 1493.64ZM692.241 1471.46L692.045 1460.38L691.045 1460.39L691.241 1471.48L692.241 1471.46ZM691.848 1449.29L691.652 1438.2L690.652 1438.21L690.848 1449.3L691.848 1449.29ZM691.455 1427.11L691.259 1416.02L690.259 1416.04L690.455 1427.12L691.455 1427.11ZM691.062 1404.93L690.866 1393.84L689.866 1393.86L690.063 1404.95L691.062 1404.93ZM690.67 1382.75L690.473 1371.66L689.473 1371.68L689.67 1382.77L690.67 1382.75ZM690.277 1360.57L690.08 1349.48L689.08 1349.5L689.277 1360.59L690.277 1360.57ZM689.884 1338.39L689.687 1327.3L688.688 1327.32L688.884 1338.41L689.884 1338.39ZM689.491 1316.21L689.295 1305.13L688.295 1305.14L688.491 1316.23L689.491 1316.21ZM689.098 1294.04L688.902 1282.95L687.902 1282.96L688.098 1294.05L689.098 1294.04ZM688.705 1271.86L688.509 1260.77L687.509 1260.79L687.705 1271.87L688.705 1271.86ZM688.312 1249.68L688.116 1238.59L687.116 1238.61L687.313 1249.7L688.312 1249.68ZM687.92 1227.5L687.723 1216.41L686.723 1216.43L686.92 1227.52L687.92 1227.5ZM687.527 1205.32L687.33 1194.23L686.33 1194.25L686.527 1205.34L687.527 1205.32ZM687.134 1183.14L686.937 1172.05L685.938 1172.07L686.134 1183.16L687.134 1183.14ZM686.741 1160.96L686.545 1149.88L685.545 1149.89L685.741 1160.98L686.741 1160.96ZM686.348 1138.79L686.152 1127.7L685.152 1127.71L685.348 1138.8L686.348 1138.79ZM685.955 1116.61L685.759 1105.52L684.759 1105.54L684.955 1116.62L685.955 1116.61ZM685.562 1094.43L685.366 1083.34L684.366 1083.36L684.563 1094.45L685.562 1094.43ZM685.17 1072.25L684.973 1061.16L683.973 1061.18L684.17 1072.27L685.17 1072.25ZM684.777 1050.07L684.58 1038.98L683.58 1039L683.777 1050.09L684.777 1050.07ZM684.384 1027.89L684.187 1016.8L683.188 1016.82L683.384 1027.91L684.384 1027.89ZM683.991 1005.71L683.795 994.625L682.795 994.643L682.991 1005.73L683.991 1005.71ZM683.598 983.536L683.5 977.991L682.5 978.009L682.598 983.554L683.598 983.536ZM683 978C683.15 977.523 683.15 977.523 683.15 977.523H683.15C683.15 977.523 683.15 977.523 683.15 977.523C683.15 977.523 683.15 977.523 683.149 977.523C683.148 977.523 683.147 977.522 683.146 977.522C683.142 977.521 683.138 977.519 683.131 977.517C683.118 977.513 683.099 977.507 683.073 977.499C683.022 977.483 682.945 977.458 682.843 977.426C682.639 977.361 682.334 977.264 681.93 977.135C681.123 976.877 679.922 976.492 678.348 975.981L678.04 976.932C679.615 977.443 680.817 977.829 681.626 978.088C682.03 978.217 682.336 978.314 682.541 978.379C682.643 978.412 682.72 978.436 682.772 978.452C682.798 978.46 682.817 978.467 682.83 978.471C682.837 978.473 682.841 978.474 682.845 978.475C682.846 978.476 682.848 978.476 682.848 978.476C682.849 978.477 682.849 978.477 682.849 978.477C682.849 978.477 682.85 978.477 682.85 978.477C682.85 978.477 682.85 978.477 682.85 978.477C682.85 978.477 682.85 978.477 683 978ZM667.617 972.456C664.577 971.447 661.122 970.29 657.279 968.991L656.958 969.938C660.803 971.238 664.26 972.395 667.302 973.405L667.617 972.456ZM646.913 965.46C643.569 964.313 640.021 963.088 636.28 961.786L635.951 962.73C639.694 964.033 643.243 965.258 646.588 966.406L646.913 965.46ZM626.008 958.189C622.648 957.005 619.163 955.769 615.56 954.484L615.224 955.426C618.828 956.712 622.314 957.947 625.676 959.132L626.008 958.189ZM605.197 950.765C601.814 949.543 598.344 948.284 594.79 946.986L594.447 947.925C598.002 949.223 601.474 950.484 604.857 951.705L605.197 950.765ZM584.497 943.206C581.07 941.94 577.575 940.643 574.017 939.314L573.667 940.25C577.227 941.58 580.722 942.878 584.151 944.144L584.497 943.206ZM563.845 935.494C560.4 934.194 556.902 932.866 553.354 931.512L552.997 932.446C556.547 933.801 560.046 935.129 563.492 936.43L563.845 935.494ZM543.194 927.613C539.804 926.305 536.372 924.974 532.902 923.621L532.539 924.552C536.01 925.906 539.443 927.237 542.834 928.546L543.194 927.613ZM522.526 919.552C519.183 918.234 515.807 916.896 512.401 915.539L512.031 916.468C515.438 917.826 518.815 919.164 522.159 920.482L522.526 919.552ZM502.093 911.409C498.708 910.045 495.296 908.663 491.858 907.263L491.481 908.189C494.92 909.59 498.333 910.972 501.719 912.336L502.093 911.409ZM481.722 903.113C478.321 901.712 474.897 900.295 471.452 898.861L471.068 899.784C474.514 901.219 477.939 902.636 481.342 904.037L481.722 903.113ZM461.298 894.609C457.945 893.198 454.575 891.771 451.189 890.33L450.797 891.25C454.185 892.692 457.556 894.119 460.91 895.531L461.298 894.609ZM440.985 885.96C437.629 884.515 434.26 883.056 430.879 881.583L430.479 882.5C433.862 883.974 437.233 885.433 440.589 886.879L440.985 885.96ZM420.817 877.174C417.452 875.691 414.076 874.194 410.691 872.684L410.283 873.597C413.67 875.108 417.047 876.605 420.414 878.089L420.817 877.174ZM400.625 868.167C397.297 866.664 393.962 865.149 390.62 863.622L390.205 864.531C393.548 866.059 396.884 867.575 400.213 869.078L400.625 868.167ZM380.578 859.003C377.243 857.46 373.903 855.904 370.56 854.337L370.135 855.242C373.48 856.81 376.821 858.366 380.158 859.911L380.578 859.003ZM360.617 849.646C357.3 848.071 353.981 846.484 350.66 844.886L350.227 845.787C353.549 847.386 356.87 848.973 360.188 850.549L360.617 849.646ZM340.71 840.065C337.417 838.459 334.124 836.841 330.832 835.213L330.389 836.11C333.682 837.739 336.977 839.357 340.272 840.964L340.71 840.065ZM320.963 830.297C317.676 828.648 314.391 826.988 311.11 825.318L310.656 826.209C313.939 827.88 317.225 829.541 320.515 831.191L320.963 830.297ZM301.298 820.286C298.033 818.598 294.772 816.901 291.519 815.194L291.054 816.079C294.31 817.788 297.572 819.486 300.839 821.174L301.298 820.286ZM281.777 810.042C278.528 808.31 275.286 806.568 272.053 804.817L271.577 805.696C274.812 807.449 278.055 809.191 281.307 810.924L281.777 810.042ZM262.369 799.526C259.151 797.753 255.943 795.971 252.746 794.179L252.257 795.051C255.456 796.844 258.666 798.628 261.887 800.402L262.369 799.526ZM243.145 788.75C239.939 786.921 236.746 785.082 233.567 783.234L233.065 784.099C236.246 785.948 239.442 787.788 242.65 789.618L243.145 788.75ZM224.074 777.663C220.911 775.79 217.763 773.907 214.633 772.015L214.116 772.871C217.249 774.764 220.399 776.648 223.564 778.524L224.074 777.663ZM205.178 766.243C202.045 764.31 198.93 762.368 195.835 760.417L195.302 761.263C198.399 763.216 201.517 765.159 204.653 767.094L205.178 766.243ZM186.587 754.524C183.464 752.511 180.362 750.49 177.285 748.459L176.734 749.294C179.815 751.326 182.919 753.35 186.046 755.365L186.587 754.524ZM168.124 742.342C165.091 740.292 162.084 738.233 159.103 736.167L158.534 736.988C161.518 739.057 164.528 741.118 167.564 743.17L168.124 742.342ZM149.996 729.766C146.99 727.624 144.013 725.473 141.067 723.315L140.476 724.121C143.425 726.283 146.406 728.436 149.416 730.581L149.996 729.766ZM132.309 716.801C129.325 714.548 126.376 712.286 123.464 710.016L122.849 710.805C125.765 713.078 128.718 715.343 131.706 717.599L132.309 716.801ZM114.841 703.181C111.984 700.878 109.166 698.567 106.39 696.248L105.748 697.015C108.53 699.338 111.352 701.653 114.213 703.96L114.841 703.181ZM97.9061 689.024C95.1235 686.608 92.3868 684.184 89.698 681.751L89.0271 682.493C91.7211 684.93 94.4629 687.359 97.2504 689.779L97.9061 689.024ZM81.625 674.287C78.9114 671.721 76.2525 669.146 73.6507 666.564L72.9462 667.273C75.554 669.862 78.2186 672.442 80.938 675.013L81.625 674.287ZM66.0188 658.792C63.4314 656.087 60.9082 653.373 58.452 650.652L57.7096 651.322C60.1726 654.051 62.7023 656.771 65.2961 659.483L66.0188 658.792ZM51.2036 642.367C48.8224 639.555 46.5144 636.736 44.2824 633.909L43.4975 634.528C45.7369 637.365 48.0522 640.193 50.4405 643.013L51.2036 642.367ZM37.5592 625.051C35.4027 622.091 33.3317 619.123 31.3493 616.147L30.5171 616.702C32.5075 619.689 34.5865 622.669 36.7509 625.64L37.5592 625.051ZM25.3918 606.735C23.4955 603.571 21.7021 600.4 20.0152 597.222L19.1319 597.691C20.8272 600.885 22.6292 604.071 24.5341 607.249L25.3918 606.735ZM15.1223 587.328C13.581 583.963 12.1623 580.592 10.8703 577.213L9.93631 577.57C11.2362 580.969 12.6633 584.361 14.2132 587.744L15.1223 587.328ZM7.30916 566.828C6.23705 563.292 5.30761 559.749 4.52563 556.201L3.54906 556.416C4.33677 559.99 5.27282 563.558 6.35217 567.118L7.30916 566.828ZM2.61069 545.418C2.12095 541.777 1.79056 538.131 1.62472 534.48L0.625747 534.526C0.792956 538.207 1.12603 541.882 1.61962 545.552L2.61069 545.418ZM1.5 529C1.5 527.203 1.54009 525.402 1.61966 523.598L0.620634 523.554C0.540422 525.373 0.5 527.188 0.5 529H1.5ZM2.56604 512.729C3.02735 509.161 3.63605 505.58 4.38756 501.987L3.40874 501.782C2.65213 505.399 2.03904 509.006 1.57429 512.601L2.56604 512.729ZM7.00019 491.406C7.98553 487.937 9.09827 484.459 10.3344 480.972L9.39183 480.638C8.14892 484.144 7.02964 487.643 6.03825 491.133L7.00019 491.406ZM14.2557 470.85C15.664 467.496 17.1819 464.135 18.8057 460.768L17.905 460.334C16.274 463.715 14.749 467.092 13.3336 470.463L14.2557 470.85ZM23.7102 451.171C25.4384 447.967 27.2587 444.759 29.1683 441.547L28.3088 441.036C26.3924 444.259 24.5651 447.479 22.8301 450.696L23.7102 451.171ZM34.879 432.34C36.8335 429.312 38.8643 426.282 40.969 423.25L40.1475 422.68C38.0367 425.721 35.9996 428.76 34.0388 431.797L34.879 432.34ZM47.407 414.278C49.5288 411.414 51.7142 408.548 53.9608 405.683L53.1738 405.066C50.9217 407.938 48.7309 410.811 46.6034 413.683L47.407 414.278ZM60.8823 397.085C63.1786 394.305 65.5304 391.526 67.936 388.747L67.1799 388.092C64.7695 390.877 62.4127 393.662 60.1113 396.448L60.8823 397.085ZM75.1468 380.595C77.6005 377.88 80.1036 375.165 82.6543 372.452L81.9258 371.767C79.3707 374.485 76.863 377.204 74.4048 379.925L75.1468 380.595ZM90.168 364.606C92.6888 362.02 95.2514 359.436 97.8541 356.855L97.1499 356.145C94.5434 358.73 91.9768 361.318 89.4519 363.908L90.168 364.606ZM105.781 349.12C108.374 346.629 111.003 344.14 113.667 341.655L112.985 340.924C110.318 343.412 107.685 345.904 105.088 348.399L105.781 349.12ZM121.705 334.26C124.417 331.798 127.162 329.34 129.939 326.886L129.276 326.136C126.497 328.593 123.749 331.055 121.033 333.519L121.705 334.26ZM138.142 319.722C140.883 317.357 143.652 314.996 146.448 312.639L145.804 311.875C143.005 314.234 140.233 316.597 137.489 318.965L138.142 319.722ZM154.914 305.582C157.715 303.273 160.541 300.968 163.389 298.668L162.761 297.89C159.91 300.192 157.082 302.499 154.278 304.811L154.914 305.582ZM171.909 291.858C174.77 289.592 177.654 287.332 180.557 285.078L179.944 284.288C177.038 286.545 174.152 288.806 171.288 291.073L171.909 291.858ZM189.263 278.379C192.144 276.183 195.043 273.992 197.959 271.806L197.359 271.006C194.441 273.193 191.54 275.386 188.657 277.584L189.263 278.379ZM206.758 265.268C209.707 263.095 212.672 260.929 215.651 258.768L215.064 257.959C212.083 260.121 209.116 262.289 206.165 264.463L206.758 265.268ZM224.501 252.401C227.465 250.285 230.442 248.176 233.431 246.073L232.856 245.255C229.865 247.359 226.886 249.47 223.92 251.587L224.501 252.401ZM242.436 239.785C245.431 237.708 248.438 235.638 251.455 233.575L250.891 232.749C247.872 234.813 244.863 236.885 241.866 238.963L242.436 239.785ZM260.506 227.428C263.532 225.386 266.567 223.352 269.611 221.326L269.056 220.493C266.012 222.521 262.975 224.556 259.947 226.599L260.506 227.428ZM278.757 215.274C281.806 213.269 284.862 211.273 287.923 209.284L287.379 208.445C284.315 210.435 281.258 212.433 278.207 214.439L278.757 215.274ZM297.125 203.343C300.197 201.371 303.274 199.408 306.355 197.453L305.82 196.609C302.737 198.564 299.659 200.529 296.585 202.501L297.125 203.343ZM315.633 191.601C318.73 189.658 321.83 187.724 324.932 185.799L324.405 184.949C321.302 186.875 318.2 188.81 315.101 190.753L315.633 191.601ZM334.242 180.054C337.358 178.141 340.475 176.238 343.592 174.345L343.072 173.49C339.954 175.384 336.836 177.288 333.718 179.202L334.242 180.054ZM352.992 168.663C356.125 166.78 359.255 164.907 362.384 163.045L361.872 162.186C358.743 164.049 355.611 165.922 352.477 167.806L352.992 168.663ZM371.765 157.488C374.938 155.617 378.108 153.758 381.272 151.91L380.768 151.046C377.602 152.895 374.432 154.755 371.257 156.626L371.765 157.488ZM390.75 146.402C393.903 144.578 397.051 142.766 400.191 140.966L399.694 140.099C396.553 141.899 393.404 143.712 390.249 145.537L390.75 146.402ZM409.747 135.515C412.945 133.698 416.135 131.895 419.314 130.106L418.824 129.234C415.643 131.024 412.453 132.828 409.253 134.645L409.747 135.515ZM428.822 124.777C432.027 122.989 435.22 121.215 438.401 119.455L437.917 118.58C434.735 120.34 431.54 122.115 428.334 123.904L428.822 124.777ZM448.058 114.136C451.263 112.378 454.454 110.635 457.629 108.908L457.151 108.03C453.975 109.757 450.784 111.5 447.577 113.259L448.058 114.136ZM467.227 103.709C470.494 101.947 473.743 100.202 476.971 98.475L476.499 97.5932C473.27 99.3209 470.02 101.066 466.752 102.829L467.227 103.709ZM486.594 93.3474C489.829 91.6309 493.041 89.9331 496.23 88.2545L495.764 87.3697C492.574 89.0488 489.361 90.747 486.126 92.464L486.594 93.3474ZM506.045 83.1083C509.29 81.4136 512.508 79.7399 515.697 78.0876L515.237 77.1997C512.047 78.8525 508.828 80.5267 505.582 82.2218L506.045 83.1083ZM525.418 73.0713C528.737 71.3652 532.022 69.6836 535.27 68.0272L534.816 67.1364C531.567 68.7932 528.281 70.4753 524.961 72.1819L525.418 73.0713ZM544.903 63.1342C548.243 61.4441 551.54 59.7826 554.792 58.1501L554.344 57.2564C551.091 58.8893 547.792 60.5514 544.451 62.2419L544.903 63.1342ZM564.608 53.2424C567.884 51.611 571.109 50.0117 574.279 48.4452L573.836 47.5486C570.665 49.1156 567.439 50.7154 564.162 52.3473L564.608 53.2424ZM584.302 43.5135C587.578 41.9079 590.789 40.341 593.931 38.8137L593.493 37.9143C590.351 39.4421 587.139 41.0095 583.862 42.6155L584.302 43.5135ZM604.019 33.9301C607.342 32.3286 610.575 30.7773 613.713 29.2773L613.282 28.375C610.142 29.8755 606.909 31.4273 603.585 33.0292L604.019 33.9301ZM623.812 24.4721C627.147 22.8926 630.352 21.3816 633.421 19.9411L632.996 19.0358C629.926 20.4769 626.72 21.9883 623.384 23.5684L623.812 24.4721ZM643.655 15.1614C647.22 13.5052 650.54 11.9719 653.601 10.5652L653.183 9.65656C650.121 11.0638 646.799 12.5978 643.234 14.2545L643.655 15.1614ZM663.471 6.05625C667.766 4.10687 671.185 2.57285 673.644 1.47645L673.237 0.563158C670.776 1.66041 667.355 3.19533 663.058 5.14564L663.471 6.05625Z" fill="#0086CA"/>
</svg>
