<svg width="24" height="28" viewBox="0 0 24 28" fill="none" xmlns="http://www.w3.org/2000/svg">
<path fill-rule="evenodd" clip-rule="evenodd" d="M22.6096 12.1228L3.35823 1.11836C3.02633 0.92877 2.65681 0.834229 2.2873 0.834229C2.28352 0.834229 2.27978 0.834481 2.27605 0.834733C2.27235 0.834983 2.26866 0.835232 2.26498 0.835232C2.21533 0.835733 2.1658 0.838241 2.1164 0.842128C2.09408 0.843883 2.07188 0.846266 2.04956 0.848773C2.01095 0.853037 1.97245 0.858428 1.93408 0.864823C1.92762 0.86593 1.92112 0.866685 1.91463 0.86744C1.90714 0.86831 1.89966 0.869181 1.8922 0.870591L1.89296 0.871594C1.65309 0.915855 1.41899 1.00037 1.20145 1.12663C0.535141 1.5132 0.125 2.22527 0.125 2.99552V25.0043C0.125 25.7746 0.535141 26.4867 1.20145 26.8732C1.41887 26.9995 1.65297 27.0841 1.89283 27.1284L1.8922 27.1293C1.89925 27.1306 1.90633 27.1314 1.91338 27.1322C1.91889 27.1329 1.92438 27.1335 1.92982 27.1344C1.97107 27.1414 2.01245 27.1472 2.05395 27.1516L2.05526 27.1517C2.07563 27.1539 2.09589 27.1561 2.11627 27.1577C2.16505 27.1616 2.2137 27.1639 2.2626 27.1645C2.26646 27.1646 2.2703 27.1648 2.27413 27.1651C2.27851 27.1653 2.28289 27.1656 2.2873 27.1656C2.65681 27.1656 3.02633 27.0711 3.35823 26.8815L22.6096 15.8769C23.2827 15.4921 23.6981 14.7764 23.6981 14.0009V14.0004V13.9999V13.9994V13.9989C23.6981 13.2235 23.2827 12.5078 22.6096 12.1228ZM14.9964 9.93745L13.0822 12.4486L8.21221 6.05936L14.9964 9.93745ZM8.21221 21.9404L21.6763 14.244C21.7632 14.1943 21.8173 14.1011 21.8175 14.0007C21.8175 13.9008 21.7633 13.8075 21.6761 13.7577L16.6425 10.8805L8.21221 21.9404Z" fill="white"/>
</svg>
