<svg width="20" height="20" viewBox="0 0 20 20" fill="none" xmlns="http://www.w3.org/2000/svg">
<path fill-rule="evenodd" clip-rule="evenodd" d="M0 9.98963C0 4.48156 4.48156 0 9.98963 0C15.4977 0 19.9793 4.48156 19.9793 9.98963C19.9793 15.4977 15.4977 19.9793 9.98963 19.9793C4.48156 19.9793 0 15.4977 0 9.98963ZM9.18846 13.6951L15.5728 7.36078C15.9734 6.9602 15.9734 6.33428 15.5728 5.93369C15.1722 5.5331 14.5463 5.5331 14.1457 5.93369L8.43736 11.6421L5.75844 9.18846C5.35785 8.81291 4.73193 8.83795 4.35638 9.23853C4.00587 9.63912 4.0309 10.265 4.43149 10.6406L7.81144 13.7201C8.21203 14.0956 8.81291 14.0706 9.18846 13.6951Z" fill="#0086CA"/>
</svg>
