<svg width="483" height="813" viewBox="0 0 483 813" fill="none" xmlns="http://www.w3.org/2000/svg">
<g opacity="0.298898" filter="url(#filter0_f_0_1797)">
<path fill-rule="evenodd" clip-rule="evenodd" d="M58.1872 135.834C56.6226 119.696 67.7364 105.071 83.7035 102.256L331.452 58.571C349.279 55.4274 366.006 68.1379 367.753 86.1562L425.076 677.421C426.641 693.559 415.527 708.184 399.56 711L151.812 754.684C133.984 757.828 117.258 745.117 115.511 727.099L58.1872 135.834Z" fill="#B5B5C2"/>
</g>
<g filter="url(#filter1_i_0_1797)">
<path fill-rule="evenodd" clip-rule="evenodd" d="M384.696 163.836L403.698 271.6C403.982 273.209 402.908 274.743 401.299 275.026L396.93 275.797L376.901 162.207L381.27 161.437C382.879 161.153 384.413 162.227 384.696 163.836Z" fill="white"/>
</g>
<g filter="url(#filter2_i_0_1797)">
<path fill-rule="evenodd" clip-rule="evenodd" d="M75.9656 218.273L84.311 265.602C84.5946 267.211 86.1285 268.285 87.7371 268.001L92.1059 267.231L82.7334 214.077L78.3646 214.847C76.756 215.131 75.6819 216.665 75.9656 218.273Z" fill="#D4D8E4"/>
</g>
<g filter="url(#filter3_i_0_1797)">
<path fill-rule="evenodd" clip-rule="evenodd" d="M86.6218 278.709L94.9672 326.038C95.2508 327.646 96.7848 328.72 98.3933 328.437L102.762 327.666L93.3896 274.512L89.0208 275.283C87.4123 275.566 86.3382 277.1 86.6218 278.709Z" fill="#D4D8E4"/>
</g>
<g filter="url(#filter4_ii_0_1797)">
<path fill-rule="evenodd" clip-rule="evenodd" d="M71.0467 173.343C66.0133 144.797 63.4967 130.525 67.1295 118.642C70.3251 108.19 76.7476 99.0175 85.4765 92.4398C95.4 84.962 109.673 82.4453 138.219 77.4119L278.021 52.7609C306.567 47.7275 320.84 45.2108 332.722 48.8437C343.175 52.0393 352.347 58.4618 358.925 67.1907C366.402 77.1141 368.919 91.387 373.952 119.933L455.095 580.116C460.129 608.662 462.645 622.935 459.012 634.818C455.817 645.27 449.394 654.442 440.666 661.02C430.742 668.498 416.469 671.014 387.923 676.048L248.121 700.699C219.575 705.732 205.302 708.249 193.42 704.616C182.967 701.42 173.795 694.998 167.217 686.269C159.74 676.345 157.223 662.073 152.19 633.527L71.0467 173.343Z" fill="white"/>
<path fill-rule="evenodd" clip-rule="evenodd" d="M71.0467 173.343C66.0133 144.797 63.4967 130.525 67.1295 118.642C70.3251 108.19 76.7476 99.0175 85.4765 92.4398C95.4 84.962 109.673 82.4453 138.219 77.4119L278.021 52.7609C306.567 47.7275 320.84 45.2108 332.722 48.8437C343.175 52.0393 352.347 58.4618 358.925 67.1907C366.402 77.1141 368.919 91.387 373.952 119.933L455.095 580.116C460.129 608.662 462.645 622.935 459.012 634.818C455.817 645.27 449.394 654.442 440.666 661.02C430.742 668.498 416.469 671.014 387.923 676.048L248.121 700.699C219.575 705.732 205.302 708.249 193.42 704.616C182.967 701.42 173.795 694.998 167.217 686.269C159.74 676.345 157.223 662.073 152.19 633.527L71.0467 173.343Z" fill="url(#paint0_linear_0_1797)"/>
<path fill-rule="evenodd" clip-rule="evenodd" d="M71.0467 173.343C66.0133 144.797 63.4967 130.525 67.1295 118.642C70.3251 108.19 76.7476 99.0175 85.4765 92.4398C95.4 84.962 109.673 82.4453 138.219 77.4119L278.021 52.7609C306.567 47.7275 320.84 45.2108 332.722 48.8437C343.175 52.0393 352.347 58.4618 358.925 67.1907C366.402 77.1141 368.919 91.387 373.952 119.933L455.095 580.116C460.129 608.662 462.645 622.935 459.012 634.818C455.817 645.27 449.394 654.442 440.666 661.02C430.742 668.498 416.469 671.014 387.923 676.048L248.121 700.699C219.575 705.732 205.302 708.249 193.42 704.616C182.967 701.42 173.795 694.998 167.217 686.269C159.74 676.345 157.223 662.073 152.19 633.527L71.0467 173.343Z" fill="url(#paint1_linear_0_1797)" style="mix-blend-mode:multiply"/>
<path fill-rule="evenodd" clip-rule="evenodd" d="M71.0467 173.343C66.0133 144.797 63.4967 130.525 67.1295 118.642C70.3251 108.19 76.7476 99.0175 85.4765 92.4398C95.4 84.962 109.673 82.4453 138.219 77.4119L278.021 52.7609C306.567 47.7275 320.84 45.2108 332.722 48.8437C343.175 52.0393 352.347 58.4618 358.925 67.1907C366.402 77.1141 368.919 91.387 373.952 119.933L455.095 580.116C460.129 608.662 462.645 622.935 459.012 634.818C455.817 645.27 449.394 654.442 440.666 661.02C430.742 668.498 416.469 671.014 387.923 676.048L248.121 700.699C219.575 705.732 205.302 708.249 193.42 704.616C182.967 701.42 173.795 694.998 167.217 686.269C159.74 676.345 157.223 662.073 152.19 633.527L71.0467 173.343Z" fill="url(#paint2_linear_0_1797)"/>
</g>
<path fill-rule="evenodd" clip-rule="evenodd" d="M84.0691 162.038C80.4738 141.648 78.6762 131.453 81.2711 122.965C83.5536 115.499 88.1411 108.948 94.3761 104.249C101.464 98.9082 111.659 97.1105 132.049 93.5153L288.599 65.9113C308.989 62.316 319.183 60.5184 327.671 63.1133C335.137 65.3958 341.689 69.9833 346.387 76.2183C351.728 83.3065 353.526 93.5014 357.121 113.891L440.832 588.638C444.427 609.027 446.225 619.222 443.63 627.71C441.347 635.176 436.76 641.727 430.525 646.426C423.437 651.767 413.242 653.565 392.852 657.16L236.302 684.764C215.912 688.359 205.717 690.157 197.23 687.562C189.764 685.279 183.212 680.692 178.514 674.457C173.173 667.369 171.375 657.174 167.78 636.784L84.0691 162.038Z" fill="#EAEBF0"/>
<mask id="mask0_0_1797" style="mask-type:luminance" maskUnits="userSpaceOnUse" x="80" y="61" width="365" height="628">
<path fill-rule="evenodd" clip-rule="evenodd" d="M84.0691 162.038C80.4738 141.648 78.6762 131.453 81.2711 122.965C83.5536 115.499 88.1411 108.948 94.3761 104.249C101.464 98.9082 111.659 97.1105 132.049 93.5153L288.599 65.9113C308.989 62.316 319.183 60.5184 327.671 63.1133C335.137 65.3958 341.689 69.9833 346.387 76.2183C351.728 83.3065 353.526 93.5014 357.121 113.891L440.832 588.638C444.427 609.027 446.225 619.222 443.63 627.71C441.347 635.176 436.76 641.727 430.525 646.426C423.437 651.767 413.242 653.565 392.852 657.16L236.302 684.764C215.912 688.359 205.717 690.157 197.23 687.562C189.764 685.279 183.212 680.692 178.514 674.457C173.173 667.369 171.375 657.174 167.78 636.784L84.0691 162.038Z" fill="white"/>
</mask>
<g mask="url(#mask0_0_1797)">
<g filter="url(#filter5_i_0_1797)">
<path d="M85.1613 161.845C83.3605 151.632 82.0223 144.038 81.453 137.935C80.885 131.845 81.0941 127.338 82.3317 123.29C84.5458 116.048 88.9956 109.693 95.0435 105.135C98.4241 102.588 102.588 100.85 108.505 99.3005C114.435 97.7482 122.029 96.4083 132.242 94.6075L288.791 67.0035C299.004 65.2027 306.598 63.8645 312.701 63.2952C318.791 62.7272 323.299 62.9363 327.347 64.1739C334.589 66.388 340.944 70.8378 345.501 76.8857C348.049 80.2663 349.787 84.4306 351.336 90.3475C352.888 96.277 354.228 103.871 356.029 114.084L439.74 588.83C441.54 599.043 442.879 606.637 443.448 612.74C444.016 618.83 443.807 623.338 442.569 627.386C440.355 634.628 435.905 640.983 429.857 645.54C426.477 648.087 422.312 649.826 416.396 651.375C410.466 652.927 402.872 654.267 392.659 656.068L236.109 683.672C225.897 685.473 218.302 686.811 212.2 687.38C206.11 687.948 201.602 687.739 197.554 686.501C190.312 684.287 183.957 679.837 179.4 673.79C176.852 670.409 175.114 666.245 173.565 660.328C172.013 654.398 170.673 646.804 168.872 636.592L85.1613 161.845Z" stroke="url(#paint3_linear_0_1797)" stroke-width="2.21811"/>
</g>
</g>
<defs>
<filter id="filter0_f_0_1797" x="0.521275" y="0.573887" width="482.22" height="812.107" filterUnits="userSpaceOnUse" color-interpolation-filters="sRGB">
<feFlood flood-opacity="0" result="BackgroundImageFix"/>
<feBlend mode="normal" in="SourceGraphic" in2="BackgroundImageFix" result="shape"/>
<feGaussianBlur stdDeviation="28.7594" result="effect1_foregroundBlur_0_1797"/>
</filter>
<filter id="filter1_i_0_1797" x="375.901" y="161.391" width="27.8418" height="114.405" filterUnits="userSpaceOnUse" color-interpolation-filters="sRGB">
<feFlood flood-opacity="0" result="BackgroundImageFix"/>
<feBlend mode="normal" in="SourceGraphic" in2="BackgroundImageFix" result="shape"/>
<feColorMatrix in="SourceAlpha" type="matrix" values="0 0 0 0 0 0 0 0 0 0 0 0 0 0 0 0 0 0 127 0" result="hardAlpha"/>
<feOffset dx="-1"/>
<feGaussianBlur stdDeviation="2"/>
<feComposite in2="hardAlpha" operator="arithmetic" k2="-1" k3="1"/>
<feColorMatrix type="matrix" values="0 0 0 0 0.223837 0 0 0 0 0.246746 0 0 0 0 0.349835 0 0 0 0.094486 0"/>
<feBlend mode="normal" in2="shape" result="effect1_innerShadow_0_1797"/>
</filter>
<filter id="filter2_i_0_1797" x="74.9199" y="214.077" width="17.1855" height="53.9698" filterUnits="userSpaceOnUse" color-interpolation-filters="sRGB">
<feFlood flood-opacity="0" result="BackgroundImageFix"/>
<feBlend mode="normal" in="SourceGraphic" in2="BackgroundImageFix" result="shape"/>
<feColorMatrix in="SourceAlpha" type="matrix" values="0 0 0 0 0 0 0 0 0 0 0 0 0 0 0 0 0 0 127 0" result="hardAlpha"/>
<feOffset dx="-1"/>
<feGaussianBlur stdDeviation="2"/>
<feComposite in2="hardAlpha" operator="arithmetic" k2="-1" k3="1"/>
<feColorMatrix type="matrix" values="0 0 0 0 0.223837 0 0 0 0 0.246746 0 0 0 0 0.349835 0 0 0 0.094486 0"/>
<feBlend mode="normal" in2="shape" result="effect1_innerShadow_0_1797"/>
</filter>
<filter id="filter3_i_0_1797" x="85.5762" y="274.512" width="17.1855" height="53.9698" filterUnits="userSpaceOnUse" color-interpolation-filters="sRGB">
<feFlood flood-opacity="0" result="BackgroundImageFix"/>
<feBlend mode="normal" in="SourceGraphic" in2="BackgroundImageFix" result="shape"/>
<feColorMatrix in="SourceAlpha" type="matrix" values="0 0 0 0 0 0 0 0 0 0 0 0 0 0 0 0 0 0 127 0" result="hardAlpha"/>
<feOffset dx="-1"/>
<feGaussianBlur stdDeviation="2"/>
<feComposite in2="hardAlpha" operator="arithmetic" k2="-1" k3="1"/>
<feColorMatrix type="matrix" values="0 0 0 0 0.223837 0 0 0 0 0.246746 0 0 0 0 0.349835 0 0 0 0.094486 0"/>
<feBlend mode="normal" in2="shape" result="effect1_innerShadow_0_1797"/>
</filter>
<filter id="filter4_ii_0_1797" x="64.4111" y="46.1255" width="396.319" height="660.208" filterUnits="userSpaceOnUse" color-interpolation-filters="sRGB">
<feFlood flood-opacity="0" result="BackgroundImageFix"/>
<feBlend mode="normal" in="SourceGraphic" in2="BackgroundImageFix" result="shape"/>
<feColorMatrix in="SourceAlpha" type="matrix" values="0 0 0 0 0 0 0 0 0 0 0 0 0 0 0 0 0 0 127 0" result="hardAlpha"/>
<feOffset dy="-1"/>
<feGaussianBlur stdDeviation="0.5"/>
<feComposite in2="hardAlpha" operator="arithmetic" k2="-1" k3="1"/>
<feColorMatrix type="matrix" values="0 0 0 0 0.788235 0 0 0 0 0.796078 0 0 0 0 0.835294 0 0 0 1 0"/>
<feBlend mode="normal" in2="shape" result="effect1_innerShadow_0_1797"/>
<feColorMatrix in="SourceAlpha" type="matrix" values="0 0 0 0 0 0 0 0 0 0 0 0 0 0 0 0 0 0 127 0" result="hardAlpha"/>
<feOffset dx="-1"/>
<feGaussianBlur stdDeviation="2"/>
<feComposite in2="hardAlpha" operator="arithmetic" k2="-1" k3="1"/>
<feColorMatrix type="matrix" values="0 0 0 0 0.223837 0 0 0 0 0.246746 0 0 0 0 0.349835 0 0 0 0.094486 0"/>
<feBlend mode="normal" in2="effect1_innerShadow_0_1797" result="effect2_innerShadow_0_1797"/>
</filter>
<filter id="filter5_i_0_1797" x="80.0439" y="61.886" width="364.813" height="626.903" filterUnits="userSpaceOnUse" color-interpolation-filters="sRGB">
<feFlood flood-opacity="0" result="BackgroundImageFix"/>
<feBlend mode="normal" in="SourceGraphic" in2="BackgroundImageFix" result="shape"/>
<feColorMatrix in="SourceAlpha" type="matrix" values="0 0 0 0 0 0 0 0 0 0 0 0 0 0 0 0 0 0 127 0" result="hardAlpha"/>
<feOffset dy="1"/>
<feComposite in2="hardAlpha" operator="arithmetic" k2="-1" k3="1"/>
<feColorMatrix type="matrix" values="0 0 0 0 0.790352 0 0 0 0 0.799469 0 0 0 0 0.845052 0 0 0 1 0"/>
<feBlend mode="normal" in2="shape" result="effect1_innerShadow_0_1797"/>
</filter>
<linearGradient id="paint0_linear_0_1797" x1="272.289" y1="239.351" x2="119.972" y2="290.283" gradientUnits="userSpaceOnUse">
<stop stop-color="#FDFEFF" stop-opacity="0.01"/>
<stop offset="0.425385" stop-color="#C8C8CA"/>
<stop offset="1" stop-color="#D6D6E2" stop-opacity="0.01"/>
</linearGradient>
<linearGradient id="paint1_linear_0_1797" x1="165.46" y1="127.409" x2="466.572" y2="411.407" gradientUnits="userSpaceOnUse">
<stop stop-color="white" stop-opacity="0.01"/>
<stop offset="0.227314" stop-color="#F0F1F5"/>
<stop offset="1" stop-color="#F0F1F5" stop-opacity="0.01"/>
</linearGradient>
<linearGradient id="paint2_linear_0_1797" x1="327.269" y1="112.621" x2="107.705" y2="175.973" gradientUnits="userSpaceOnUse">
<stop stop-color="#D0D0D8" stop-opacity="0.01"/>
<stop offset="1" stop-color="#C5C9D3"/>
</linearGradient>
<linearGradient id="paint3_linear_0_1797" x1="73.7979" y1="103.786" x2="178.051" y2="695.035" gradientUnits="userSpaceOnUse">
<stop stop-color="#D3D5DF"/>
<stop offset="1" stop-color="#F1F1F2"/>
</linearGradient>
</defs>
</svg>
