<svg width="41" height="40" viewBox="0 0 41 40" fill="none" xmlns="http://www.w3.org/2000/svg">
<path fill-rule="evenodd" clip-rule="evenodd" d="M30.6015 20.9283L26.7904 26.6821C26.2912 28.1744 25.4424 29.5838 24.2439 30.7777L18.0742 36.9091C14.0466 40.9219 7.33947 41.1374 3.09556 36.9091C-1.03185 32.7969 -1.03185 26.1136 3.09556 22.0014L9.26534 15.8544C10.447 14.6771 11.845 13.8148 13.3761 13.3174L15.4399 13.1848L20.0832 13.3672L20.1332 13.3174C21.6644 13.8148 23.0623 14.6771 24.2439 15.8544C25.4422 17.0482 26.2911 18.4578 26.7904 19.95L30.6015 20.9283ZM7.2563 32.7637C9.07045 34.5711 12.0494 34.6208 13.9135 32.7637L20.0833 26.6323L16.7214 23.3491L13.3761 20.0494L7.2563 26.131C5.42559 27.955 5.42559 30.9397 7.2563 32.7637Z" fill="#013C5E"/>
<path d="M24.2441 30.7776L18.0743 36.909C14.0467 40.9218 7.33961 41.1373 3.0957 36.909L7.25638 32.7636C9.07053 34.5711 12.0495 34.6208 13.9136 32.7636L20.0833 26.6323L16.7215 23.3491L24.2441 15.8543C25.4423 17.0481 26.2912 18.4576 26.7905 19.9499L30.6017 20.9283L26.7905 26.682C26.2912 28.1744 25.4424 29.5837 24.2441 30.7776Z" fill="#384949"/>
<path d="M32.5659 34.094L30.9016 32.4358C30.4417 31.9775 30.4417 31.2359 30.9016 30.7776C31.3616 30.3194 32.106 30.3194 32.5659 30.7776L34.2302 32.4358C34.6902 32.8941 34.6902 33.6357 34.2302 34.094C33.7702 34.5522 33.0259 34.5522 32.5659 34.094Z" fill="#D2C5C2"/>
<path d="M7.60116 9.22176L5.93676 7.56359C5.47681 7.10533 5.47681 6.36367 5.93676 5.90549C6.39671 5.44731 7.14113 5.44724 7.601 5.90549L9.26524 7.56359C9.72519 8.02184 9.72519 8.76351 9.26524 9.22168C8.80528 9.67986 8.06103 9.67994 7.60116 9.22176Z" fill="#DFD7D5"/>
<path d="M34.8605 23.9443C35.0287 23.3184 35.6739 22.9476 36.3021 23.1151L38.5759 23.7224C39.2041 23.8868 39.5746 24.5328 39.4081 25.1587C39.2399 25.7846 38.5946 26.1554 37.9665 25.9878L35.6927 25.3806C35.0686 25.2141 34.6921 24.5739 34.8605 23.9443Z" fill="#D2C5C2"/>
<path d="M0.758965 14.8406C0.927161 14.2147 1.57241 13.8439 2.20056 14.0115L4.47436 14.6188C5.10015 14.7823 5.47389 15.4285 5.30655 16.0551C5.13836 16.681 4.49311 17.0518 3.86496 16.8842L1.59116 16.2769C0.967092 16.1105 0.590533 15.4702 0.758965 14.8406Z" fill="#DFD7D5"/>
<path d="M23.8199 38.4239L23.2103 36.1585C23.0421 35.5326 23.4143 34.8898 24.0425 34.7222C24.6708 34.5547 25.3151 34.923 25.4841 35.5514L26.0936 37.8168C26.2618 38.4427 25.8896 39.0855 25.2614 39.2531C24.6296 39.4208 23.9869 39.0457 23.8199 38.4239Z" fill="#D2C5C2"/>
<path d="M14.6822 4.44814L14.0726 2.18274C13.9044 1.55683 14.2766 0.914039 14.9048 0.746463C15.5331 0.580529 16.179 0.947258 16.3464 1.57559L16.956 3.84099C17.1242 4.4669 16.752 5.10969 16.1238 5.27727C15.492 5.44485 14.8493 5.06975 14.6822 4.44814Z" fill="#DFD7D5"/>
<path d="M37.0712 3.09038C32.9437 -1.0218 26.2366 -1.03845 22.0925 3.09038L15.9228 9.22176C14.7245 10.4156 13.8757 11.825 13.3764 13.3174C12.644 15.5062 12.6441 17.8607 13.3764 20.0495C13.8757 21.5417 14.7245 22.9514 15.9228 24.1452C17.0878 25.3059 18.4858 26.168 20.0336 26.6821L20.0835 26.6324C21.9143 24.8084 21.9142 21.8237 20.0835 19.9998C18.2528 18.1758 18.2528 15.1911 20.0835 13.3672L26.2533 7.23578C27.1521 6.34029 28.3171 5.8761 29.582 5.8761C29.6152 5.84304 29.8981 5.85953 29.9648 5.89267C30.8635 5.89259 32.045 6.37343 32.9105 7.23578C34.7412 9.05973 34.7413 12.0444 32.9105 13.8684L26.7908 19.9499C27.5231 22.1387 27.5231 24.4933 26.7908 26.6821C28.3052 26.1681 29.7366 25.3059 30.9015 24.1451L37.0713 18.0137C41.1987 13.9015 41.1986 7.20256 37.0712 3.09038Z" fill="#0086CA"/>
<path d="M20.0836 26.6322L20.0337 26.6819C18.486 26.1679 17.0878 25.3057 15.9229 24.145L20.0836 19.9996C21.9143 21.8236 21.9144 24.8082 20.0836 26.6322Z" fill="#0086CA"/>
<path d="M37.0716 18.0137L30.9018 24.1451C29.7368 25.3059 28.3055 26.1681 26.791 26.6821C27.5233 24.4933 27.5233 22.1387 26.791 19.9499L32.9107 13.8684C34.7415 12.0444 34.7415 9.05974 32.9107 7.23579L37.0715 3.09039C41.199 7.20249 41.1991 13.9014 37.0716 18.0137Z" fill="#0086CA"/>
</svg>
