<svg width="40" height="36" viewBox="0 0 40 36" fill="none" xmlns="http://www.w3.org/2000/svg">
<path d="M28.2031 3.6V6C28.2031 6.67192 27.6876 7.2 27.0312 7.2H25.8594V3.6C25.8594 2.92792 25.3438 2.4 24.6875 2.4H15.3125C14.6562 2.4 14.1406 2.92792 14.1406 3.6V7.2H12.9688C12.3124 7.2 11.7969 6.67192 11.7969 6V3.6C11.7969 1.60792 13.3671 0 15.3125 0H24.6875C26.6329 0 28.2031 1.60792 28.2031 3.6Z" fill="#50C4FF"/>
<path d="M24.6875 2.4H20V0H24.6875C26.6329 0 28.2031 1.60792 28.2031 3.6V6C28.2031 6.67192 27.6876 7.2 27.0312 7.2H25.8594V3.6C25.8594 2.92792 25.3438 2.4 24.6875 2.4Z" fill="#50C4FF"/>
<path d="M40 5.99995V32.4C40 34.3919 38.4298 36 36.4844 36H3.51562C1.57023 36 0 34.3919 0 32.4V5.99995C0 5.66395 0.140625 5.37595 0.351641 5.15987L6.32812 18.936H33.6719L39.6484 5.15979C39.8594 5.37595 40 5.66395 40 5.99995Z" fill="#013C5E"/>
<path d="M40 5.99995V32.4C40 34.3919 38.4298 36 36.4844 36H20V18.936H33.6719L39.6484 5.15979C39.8594 5.37595 40 5.66395 40 5.99995Z" fill="#045889"/>
<path d="M39.6483 5.15991L36.0155 18.936C35.5937 20.5199 34.2109 21.6 32.6171 21.6H7.38281C5.78891 21.6 4.40617 20.52 3.9843 18.936L0.351562 5.15991C0.562422 4.94399 0.843672 4.79999 1.1718 4.79999H38.828C39.1562 4.79999 39.4374 4.94399 39.6483 5.15991Z" fill="#045889"/>
<path d="M39.6484 5.15991L36.0156 18.936C35.5938 20.5199 34.211 21.6 32.6172 21.6H20V4.79999H38.8281C39.1562 4.79999 39.4375 4.94399 39.6484 5.15991Z" fill="#045889"/>
<path d="M24.6875 18H15.3125C14.6562 18 14.1406 18.5279 14.1406 19.2V24C14.1406 24.6719 14.6562 25.2 15.3125 25.2H24.6875C25.3438 25.2 25.8594 24.6719 25.8594 24V19.2C25.8594 18.5279 25.3438 18 24.6875 18Z" fill="#0086CA"/>
<path d="M25.8594 19.2V24C25.8594 24.6719 25.3438 25.2 24.6875 25.2H20V18H24.6875C25.3438 18 25.8594 18.5279 25.8594 19.2Z" fill="#50C4FF"/>
</svg>
