<svg width="158" height="30" viewBox="0 0 158 30" fill="none" xmlns="http://www.w3.org/2000/svg">
<circle cx="57.9875" cy="14.9875" r="14.9875" fill="#2962FF"/>
<path d="M57.9875 0C49.71 0 43 6.71019 43 14.9875C43 19.0898 44.6518 22.8055 47.3228 25.5108L68.5108 4.32284C65.8055 1.65185 62.0897 0 57.9875 0Z" fill="#2979FF"/>
<path d="M61.4547 9C64.1815 9 64.1815 11.77 64.1815 11.77L66 12.6925C66 12.6925 66 13.6158 63.2715 14.5384C64.1807 17.3084 60.9996 21 57.3628 21C53.726 21 51 18.23 51 14.5384C51 14.5384 53.2719 16.3842 56.0003 15.4616C56.0858 15.5204 53.3035 13.6761 54.1818 9C54.1818 9 56.0003 11.77 58.727 11.77C58.7263 11.7691 58.7263 9 61.4547 9Z" fill="white"/>
<circle cx="14.9875" cy="14.9875" r="14.9875" fill="#2962FF"/>
<path d="M14.9875 0C6.71005 0 0 6.71019 0 14.9875C0 19.0898 1.65185 22.8055 4.32284 25.5108L25.5108 4.32284C22.8055 1.65185 19.0897 0 14.9875 0Z" fill="#2979FF"/>
<rect x="10" y="11.75" width="2.6835" height="8.25" fill="white"/>
<path d="M19.993 11.8467C19.9645 11.8378 19.9375 11.828 19.9075 11.8198C19.8715 11.8115 19.8355 11.8047 19.7987 11.7987C19.6562 11.7702 19.5002 11.75 19.3172 11.75C17.7527 11.75 16.7605 12.8878 16.4335 13.3273V11.75H13.75V20H16.4335V15.5C16.4335 15.5 18.4615 12.6755 19.3172 14.75C19.3172 16.6017 19.3172 20 19.3172 20H22V14.4327C22 13.1862 21.1458 12.1475 19.993 11.8467Z" fill="white"/>
<circle cx="11.3125" cy="9.3125" r="1.3125" fill="white"/>
<circle cx="99.9875" cy="14.9875" r="14.9875" fill="#2962FF"/>
<path d="M99.9875 0C91.71 0 85 6.71019 85 14.9875C85 19.0898 86.6518 22.8055 89.3228 25.5108L110.511 4.32284C107.806 1.65185 104.09 0 99.9875 0Z" fill="#2979FF"/>
<path d="M98.6596 14.2375H97.202C96.534 14.2375 96 13.7289 96 13.0699C96 12.4115 96.534 11.8835 97.202 11.8835H98.6596V11.2417C98.6596 10.1312 98.946 9.32171 99.4792 8.79287C100.013 8.26548 100.795 8 101.825 8C102.283 8 102.684 8.01883 103.007 8.076C103.504 8.152 104 8.58601 104 9.22697C104 9.86794 103.466 10.4134 102.818 10.4134H102.57C101.902 10.4134 101.521 10.7541 101.521 11.5072V11.903H102.78C103.447 11.903 103.982 12.4123 103.982 13.0706C103.982 13.7296 103.448 14.2382 102.78 14.2382H101.559V20.5683C101.559 21.3605 100.91 22 100.109 22C99.3094 22 98.6596 21.3597 98.6596 20.5683V14.2375Z" fill="white"/>
<circle cx="142.987" cy="14.9875" r="14.9875" fill="#2962FF"/>
<path d="M142.987 0C134.71 0 128 6.71019 128 14.9875C128 19.0898 129.652 22.8055 132.323 25.5108L153.511 4.32284C150.806 1.65185 147.09 0 142.987 0Z" fill="#2979FF"/>
<path d="M149.943 20.8647C149.943 21.4593 149.459 21.9431 148.864 21.9431H138.079C137.484 21.9431 137 21.4593 137 20.8647V10.0791C137 9.48293 137.484 9 138.079 9H148.864C149.459 9 149.943 9.48293 149.943 10.0791V20.8647Z" fill="#C5CAE9"/>
<path d="M148.864 9H138.079C137.484 9 137 9.48293 137 10.0791V20.8648C137 21.135 137.109 21.3745 137.273 21.5637L149.564 9.27343C149.374 9.10926 149.135 9 148.864 9Z" fill="#C5CAE9"/>
<path opacity="0.756789" d="M148.864 9H138.079C137.484 9 137 9.48293 137 10.0791V14.3932H149.943V10.0792C149.943 9.48304 149.459 9 148.864 9Z" fill="#448AFF"/>
<circle cx="143.472" cy="15.4715" r="3.77451" fill="white"/>
</svg>
