<svg width="407" height="679" viewBox="0 0 407 679" fill="none" xmlns="http://www.w3.org/2000/svg">
<g filter="url(#filter0_ii_0_1784)">
<path fill-rule="evenodd" clip-rule="evenodd" d="M380.583 194.688L377.783 193.799C377.783 193.799 377.325 193.605 373.589 214.793C369.853 235.982 370.35 235.956 370.35 235.956L373.271 236.158L380.583 194.688Z" fill="#DFDDD9"/>
</g>
<g filter="url(#filter1_ii_0_1784)">
<path fill-rule="evenodd" clip-rule="evenodd" d="M365.347 281.098L362.615 279.822C362.615 279.822 362.176 279.517 354.673 322.071C347.169 364.626 347.686 364.489 347.686 364.489L350.661 364.385L365.347 281.098Z" fill="#DFDDD9"/>
</g>
<g filter="url(#filter2_i_0_1784)">
<path fill-rule="evenodd" clip-rule="evenodd" d="M392.597 111.334C393.002 109.038 393.407 106.742 393.801 104.509C394.138 102.596 394.415 100.672 394.764 98.6953C395.385 94.4656 395.885 90.2133 395.951 85.951C395.968 81.6141 395.505 77.5211 394.305 73.3642C393.154 69.282 391.404 65.4225 389.09 61.9237C386.777 58.4255 383.951 55.3627 380.72 52.8204C377.441 50.2042 373.967 48.342 370.111 46.873C366.316 45.4141 362.37 44.4558 358.39 43.6881C356.588 43.305 354.774 42.9851 352.899 42.6546C350.723 42.2708 348.546 41.887 346.43 41.5138L167.709 10.0005C165.532 9.61658 163.355 9.23282 161.239 8.85963C159.425 8.53984 157.6 8.28335 155.725 7.95282C151.712 7.37712 147.676 6.92876 143.623 6.93707C139.497 6.99868 135.595 7.5602 131.619 8.8971C127.714 10.1813 124.011 12.0927 120.64 14.5887C117.27 17.0853 114.304 20.1133 111.827 23.5558C109.278 27.0516 107.443 30.7394 105.975 34.8205C104.519 38.8376 103.535 43.0046 102.732 47.2023C102.335 49.1048 101.997 51.0186 101.649 52.9952C101.244 55.291 100.839 57.5868 100.445 59.8193L11.0136 567.012C10.6088 569.308 10.204 571.604 9.81042 573.836C9.47308 575.749 9.19601 577.673 8.84737 579.65C8.22605 583.88 7.72583 588.132 7.65986 592.395C7.64338 596.731 8.10634 600.824 9.30615 604.981C10.4566 609.064 12.2075 612.923 14.5207 616.422C16.8342 619.92 19.6607 622.983 22.8907 625.526C26.1697 628.142 29.6445 630.004 33.5002 631.473C37.2954 632.931 41.241 633.89 45.2205 634.657C47.0232 635.041 48.8368 635.361 50.7113 635.691C52.888 636.075 240.256 669.113 242.372 669.486C244.186 669.806 246.011 670.062 247.886 670.392C251.899 670.969 255.934 671.417 259.988 671.409C264.114 671.347 268.016 670.786 271.992 669.449C275.897 668.165 279.6 666.253 282.971 663.757C286.341 661.261 289.306 658.233 291.784 654.789C294.333 651.294 296.168 647.606 297.635 643.525C299.092 639.508 300.076 635.341 300.879 631.143C301.276 629.24 301.614 627.327 301.962 625.35C302.367 623.054 302.772 620.758 303.165 618.527L392.597 111.334Z" fill="#EDEDED"/>
</g>
<g filter="url(#filter3_i_0_1784)">
<path fill-rule="evenodd" clip-rule="evenodd" d="M182.407 31.9579C186.784 32.7298 189.707 36.9051 188.935 41.2838L188.929 41.3172C188.157 45.6958 183.983 48.6196 179.605 47.8477C175.227 47.0758 172.304 42.9005 173.076 38.5219L173.082 38.4884C173.854 34.1098 178.029 31.186 182.407 31.9579Z" fill="#D1CFCB"/>
</g>
<g filter="url(#filter4_i_0_1784)">
<path fill-rule="evenodd" clip-rule="evenodd" d="M202.073 35.6212C204.216 35.999 205.646 38.0422 205.268 40.1849L205.265 40.2013C205.241 40.3382 203.78 48.5803 203.743 48.7111C203.196 50.6276 201.278 51.8588 199.272 51.5052C197.231 51.1453 195.837 49.2737 196.036 47.2445C196.046 47.1438 197.489 38.9346 197.507 38.8334L197.51 38.817C197.888 36.6743 199.931 35.2435 202.073 35.6212Z" fill="#D1CFCB"/>
</g>
<g filter="url(#filter5_i_0_1784)">
<path fill-rule="evenodd" clip-rule="evenodd" d="M201.689 37.7166C203.086 37.9629 204.019 39.2955 203.772 40.6929L203.77 40.7036C203.524 42.101 202.192 43.0341 200.795 42.7878C199.397 42.5414 198.465 41.2089 198.711 39.8115L198.713 39.8008C198.959 38.4034 200.292 37.4702 201.689 37.7166Z" fill="#D1CFCB"/>
</g>
<g filter="url(#filter6_i_0_1784)">
<path fill-rule="evenodd" clip-rule="evenodd" d="M200.486 44.5386C201.883 44.785 202.816 46.1175 202.569 47.5149L202.567 47.5256C202.321 48.923 200.989 49.8562 199.591 49.6098C198.194 49.3635 197.261 48.0309 197.508 46.6335L197.51 46.6228C197.756 45.2254 199.088 44.2922 200.486 44.5386Z" fill="#D1CFCB"/>
</g>
<g filter="url(#filter7_i_0_1784)">
<path fill-rule="evenodd" clip-rule="evenodd" d="M236.806 46.1183L271.665 52.2649C272.805 52.4658 273.746 53.6538 273.531 54.8765C273.315 56.099 272.024 56.8933 270.884 56.6924L236.025 50.5457C234.886 50.3448 233.944 49.1568 234.16 47.9343C234.375 46.7116 235.666 45.9174 236.806 46.1183Z" fill="#D1CFCB"/>
</g>
<defs>
<filter id="filter0_ii_0_1784" x="365.328" y="193.799" width="20.2549" height="42.3586" filterUnits="userSpaceOnUse" color-interpolation-filters="sRGB">
<feFlood flood-opacity="0" result="BackgroundImageFix"/>
<feBlend mode="normal" in="SourceGraphic" in2="BackgroundImageFix" result="shape"/>
<feColorMatrix in="SourceAlpha" type="matrix" values="0 0 0 0 0 0 0 0 0 0 0 0 0 0 0 0 0 0 127 0" result="hardAlpha"/>
<feOffset dx="5"/>
<feGaussianBlur stdDeviation="7"/>
<feComposite in2="hardAlpha" operator="arithmetic" k2="-1" k3="1"/>
<feColorMatrix type="matrix" values="0 0 0 0 0.965827 0 0 0 0 0.927001 0 0 0 0 0.849348 0 0 0 1 0"/>
<feBlend mode="normal" in2="shape" result="effect1_innerShadow_0_1784"/>
<feColorMatrix in="SourceAlpha" type="matrix" values="0 0 0 0 0 0 0 0 0 0 0 0 0 0 0 0 0 0 127 0" result="hardAlpha"/>
<feOffset dx="-5"/>
<feGaussianBlur stdDeviation="7"/>
<feComposite in2="hardAlpha" operator="arithmetic" k2="-1" k3="1"/>
<feColorMatrix type="matrix" values="0 0 0 0 0.124477 0 0 0 0 0.161518 0 0 0 0 0.486767 0 0 0 0.2 0"/>
<feBlend mode="normal" in2="effect1_innerShadow_0_1784" result="effect2_innerShadow_0_1784"/>
</filter>
<filter id="filter1_ii_0_1784" x="342.679" y="279.822" width="27.668" height="84.667" filterUnits="userSpaceOnUse" color-interpolation-filters="sRGB">
<feFlood flood-opacity="0" result="BackgroundImageFix"/>
<feBlend mode="normal" in="SourceGraphic" in2="BackgroundImageFix" result="shape"/>
<feColorMatrix in="SourceAlpha" type="matrix" values="0 0 0 0 0 0 0 0 0 0 0 0 0 0 0 0 0 0 127 0" result="hardAlpha"/>
<feOffset dx="5"/>
<feGaussianBlur stdDeviation="7"/>
<feComposite in2="hardAlpha" operator="arithmetic" k2="-1" k3="1"/>
<feColorMatrix type="matrix" values="0 0 0 0 0.965827 0 0 0 0 0.927001 0 0 0 0 0.849348 0 0 0 1 0"/>
<feBlend mode="normal" in2="shape" result="effect1_innerShadow_0_1784"/>
<feColorMatrix in="SourceAlpha" type="matrix" values="0 0 0 0 0 0 0 0 0 0 0 0 0 0 0 0 0 0 127 0" result="hardAlpha"/>
<feOffset dx="-5"/>
<feGaussianBlur stdDeviation="7"/>
<feComposite in2="hardAlpha" operator="arithmetic" k2="-1" k3="1"/>
<feColorMatrix type="matrix" values="0 0 0 0 0.124477 0 0 0 0 0.161518 0 0 0 0 0.486767 0 0 0 0.2 0"/>
<feBlend mode="normal" in2="effect1_innerShadow_0_1784" result="effect2_innerShadow_0_1784"/>
</filter>
<filter id="filter2_i_0_1784" x="2.65918" y="6.93701" width="393.292" height="664.472" filterUnits="userSpaceOnUse" color-interpolation-filters="sRGB">
<feFlood flood-opacity="0" result="BackgroundImageFix"/>
<feBlend mode="normal" in="SourceGraphic" in2="BackgroundImageFix" result="shape"/>
<feColorMatrix in="SourceAlpha" type="matrix" values="0 0 0 0 0 0 0 0 0 0 0 0 0 0 0 0 0 0 127 0" result="hardAlpha"/>
<feOffset dx="-5"/>
<feGaussianBlur stdDeviation="7"/>
<feComposite in2="hardAlpha" operator="arithmetic" k2="-1" k3="1"/>
<feColorMatrix type="matrix" values="0 0 0 0 0.124477 0 0 0 0 0.161518 0 0 0 0 0.486767 0 0 0 0.2 0"/>
<feBlend mode="normal" in2="shape" result="effect1_innerShadow_0_1784"/>
</filter>
<filter id="filter3_i_0_1784" x="172.953" y="31.8344" width="17.1055" height="18.137" filterUnits="userSpaceOnUse" color-interpolation-filters="sRGB">
<feFlood flood-opacity="0" result="BackgroundImageFix"/>
<feBlend mode="normal" in="SourceGraphic" in2="BackgroundImageFix" result="shape"/>
<feColorMatrix in="SourceAlpha" type="matrix" values="0 0 0 0 0 0 0 0 0 0 0 0 0 0 0 0 0 0 127 0" result="hardAlpha"/>
<feOffset dx="1" dy="2"/>
<feGaussianBlur stdDeviation="2.5"/>
<feComposite in2="hardAlpha" operator="arithmetic" k2="-1" k3="1"/>
<feColorMatrix type="matrix" values="0 0 0 0 0 0 0 0 0 0 0 0 0 0 0 0 0 0 0.2 0"/>
<feBlend mode="normal" in2="shape" result="effect1_innerShadow_0_1784"/>
</filter>
<filter id="filter4_i_0_1784" x="196.018" y="35.5608" width="10.3115" height="18.0049" filterUnits="userSpaceOnUse" color-interpolation-filters="sRGB">
<feFlood flood-opacity="0" result="BackgroundImageFix"/>
<feBlend mode="normal" in="SourceGraphic" in2="BackgroundImageFix" result="shape"/>
<feColorMatrix in="SourceAlpha" type="matrix" values="0 0 0 0 0 0 0 0 0 0 0 0 0 0 0 0 0 0 127 0" result="hardAlpha"/>
<feOffset dx="1" dy="2"/>
<feGaussianBlur stdDeviation="2.5"/>
<feComposite in2="hardAlpha" operator="arithmetic" k2="-1" k3="1"/>
<feColorMatrix type="matrix" values="0 0 0 0 0 0 0 0 0 0 0 0 0 0 0 0 0 0 0.2 0"/>
<feBlend mode="normal" in2="shape" result="effect1_innerShadow_0_1784"/>
</filter>
<filter id="filter5_i_0_1784" x="198.672" y="37.6771" width="6.13965" height="7.15015" filterUnits="userSpaceOnUse" color-interpolation-filters="sRGB">
<feFlood flood-opacity="0" result="BackgroundImageFix"/>
<feBlend mode="normal" in="SourceGraphic" in2="BackgroundImageFix" result="shape"/>
<feColorMatrix in="SourceAlpha" type="matrix" values="0 0 0 0 0 0 0 0 0 0 0 0 0 0 0 0 0 0 127 0" result="hardAlpha"/>
<feOffset dx="1" dy="2"/>
<feGaussianBlur stdDeviation="2.5"/>
<feComposite in2="hardAlpha" operator="arithmetic" k2="-1" k3="1"/>
<feColorMatrix type="matrix" values="0 0 0 0 0 0 0 0 0 0 0 0 0 0 0 0 0 0 0.2 0"/>
<feBlend mode="normal" in2="shape" result="effect1_innerShadow_0_1784"/>
</filter>
<filter id="filter6_i_0_1784" x="197.469" y="44.4991" width="6.13965" height="7.15015" filterUnits="userSpaceOnUse" color-interpolation-filters="sRGB">
<feFlood flood-opacity="0" result="BackgroundImageFix"/>
<feBlend mode="normal" in="SourceGraphic" in2="BackgroundImageFix" result="shape"/>
<feColorMatrix in="SourceAlpha" type="matrix" values="0 0 0 0 0 0 0 0 0 0 0 0 0 0 0 0 0 0 127 0" result="hardAlpha"/>
<feOffset dx="1" dy="2"/>
<feGaussianBlur stdDeviation="2.5"/>
<feComposite in2="hardAlpha" operator="arithmetic" k2="-1" k3="1"/>
<feColorMatrix type="matrix" values="0 0 0 0 0 0 0 0 0 0 0 0 0 0 0 0 0 0 0.2 0"/>
<feBlend mode="normal" in2="shape" result="effect1_innerShadow_0_1784"/>
</filter>
<filter id="filter7_i_0_1784" x="234.129" y="46.0873" width="40.4326" height="12.6361" filterUnits="userSpaceOnUse" color-interpolation-filters="sRGB">
<feFlood flood-opacity="0" result="BackgroundImageFix"/>
<feBlend mode="normal" in="SourceGraphic" in2="BackgroundImageFix" result="shape"/>
<feColorMatrix in="SourceAlpha" type="matrix" values="0 0 0 0 0 0 0 0 0 0 0 0 0 0 0 0 0 0 127 0" result="hardAlpha"/>
<feOffset dx="1" dy="2"/>
<feGaussianBlur stdDeviation="2.5"/>
<feComposite in2="hardAlpha" operator="arithmetic" k2="-1" k3="1"/>
<feColorMatrix type="matrix" values="0 0 0 0 0 0 0 0 0 0 0 0 0 0 0 0 0 0 0.2 0"/>
<feBlend mode="normal" in2="shape" result="effect1_innerShadow_0_1784"/>
</filter>
</defs>
</svg>
