<svg width="30" height="30" viewBox="0 0 30 30" fill="none" xmlns="http://www.w3.org/2000/svg">
<path fill-rule="evenodd" clip-rule="evenodd" d="M0 15C0 6.73457 6.69966 0.0349121 14.9651 0.0349121C23.2304 0.0349121 29.9301 6.73549 29.9301 15C29.9301 23.2645 23.2305 29.965 14.9651 29.965C6.69966 29.965 0 23.2634 0 15ZM2.80603 15C2.80603 21.7155 8.24949 27.159 14.9651 27.159C21.6805 27.159 27.1241 21.7156 27.1241 15C27.1241 8.2844 21.6807 2.84084 14.9651 2.84084C8.24949 2.84084 2.80603 8.2845 2.80603 15ZM14.8958 10.7929C15.0015 10.604 14.9379 10.3626 14.7527 10.2532L13.7389 9.66491C13.5536 9.55642 13.3133 9.62186 13.2076 9.80988L11.6541 12.5522L9.94151 15.5723L8.5124 18.094C8.40575 18.282 8.47027 18.5243 8.65551 18.6309L9.66935 19.221C9.85459 19.3295 10.094 19.2641 10.2015 19.077L12.1872 15.5723L13.4704 13.308L14.8958 10.7929ZM12.5303 16.8799L14.0895 14.0683H16.6307L18.0337 16.8799H12.5303ZM9.6038 14.0683H7.48253C6.96627 14.0683 6.54719 14.4883 6.54719 15.0055V15.9436C6.54719 16.4608 6.96616 16.8799 7.48253 16.8799H7.92031C7.92021 16.8799 9.6038 14.0683 9.6038 14.0683ZM8.32336 19.0845L9.33627 19.6737C9.52336 19.7813 9.52993 19.9702 9.35229 20.0928L8.0438 20.9963C7.86606 21.1178 7.74164 21.0403 7.76599 20.8251L7.94178 19.28C7.96695 19.0658 8.13812 18.9769 8.32336 19.0845ZM20.4039 15.6107L20.3834 15.5723L19.7436 14.3405L19.7315 14.319L19.6595 14.1787L19.6052 14.0768L19.5594 13.987L19.4752 13.8261L19.449 13.7766L19.3536 13.5923L19.3255 13.5381C18.611 12.1716 17.714 10.4871 17.1612 9.60234C16.881 9.15309 16.5734 8.61728 16.2691 8.08711C15.5223 6.78613 14.7951 5.51918 14.5386 5.64882C14.1164 5.86186 15.1367 8.18239 15.7872 9.66171L15.7872 9.66173C15.9162 9.95522 16.0307 10.2156 16.1165 10.4198C16.6346 11.6526 18.6568 16.3797 19.0618 16.5855C19.4243 16.7696 19.5889 16.6975 19.8133 16.5993C19.8396 16.5877 19.8668 16.5759 19.8951 16.564C20.1672 16.4487 20.6517 16.0699 20.4039 15.6107ZM20.4543 14.0683H22.4475C22.9648 14.0683 23.3828 14.4883 23.3828 15.0055V15.9436C23.3828 16.4609 22.9647 16.8799 22.4475 16.8799H22.0584L20.4543 14.0683ZM21.5599 18.0471L21.0773 17.1081C20.9678 16.8957 20.7106 16.8088 20.5058 16.9155L19.924 17.2185C19.7191 17.3252 19.6546 17.5777 19.7809 17.7806L20.3917 18.758C20.5179 18.96 20.7835 19.0265 20.9818 18.9039L21.3971 18.6514C21.5955 18.5317 21.6684 18.2586 21.5599 18.0471ZM21.3972 19.418C21.402 19.4133 21.4067 19.4087 21.4112 19.4043C23.1393 18.4182 22.887 21.4174 22.8754 21.5553C22.8751 21.5586 22.875 21.5602 22.875 21.5602C22.8136 21.3635 22.5608 21.2541 22.2657 21.1263C21.9405 20.9855 21.5639 20.8224 21.3354 20.4958C20.9115 19.8913 21.239 19.5722 21.3972 19.418Z" fill="white"/>
</svg>
